<svg xmlns="http://www.w3.org/2000/svg" width="24" height="24" viewBox="0 0 24 24">
  <path fill="none" stroke="#22D7FF" stroke-width="2.5" stroke-linecap="round" stroke-linejoin="round" d="M18 11.5a1 1 0 0 0-1 1v4a1 1 0 0 1-1 1H6a1 1 0 0 1-1-1v-4a1 1 0 0 0-1-1"/>
  <path fill="#22D7FF" fill-opacity="0.2" d="M17 5a2.85 2.83 0 1 1-5.7 0 2.85 2.83 0 0 1 5.7 0z"/>
  <path fill="none" stroke="#22D7FF" stroke-width="2.5" stroke-linecap="round" stroke-linejoin="round" d="M17 5a2.85 2.83 0 1 1-5.7 0 2.85 2.83 0 0 1 5.7 0z"/>
  <path fill="none" stroke="#22D7FF" stroke-width="2.5" stroke-linecap="round" stroke-linejoin="round" d="M12 12v9"/>
  <path fill="none" stroke="#22D7FF" stroke-width="2.5" stroke-linecap="round" stroke-linejoin="round" d="M9 17h6"/>
</svg>
